<?xml version="1.0" encoding="utf-8"?>
<!-- Generator: Adobe Illustrator 22.0.1, SVG Export Plug-In . SVG Version: 6.00 Build 0)  -->
<svg version="1.1" id="Layer_1" xmlns="http://www.w3.org/2000/svg" xmlns:xlink="http://www.w3.org/1999/xlink" x="0px" y="0px"
	 viewBox="0 0 200 200" style="enable-background:new 0 0 200 200;" xml:space="preserve">
<style type="text/css">
	.st0{fill:#FFFFFF;}
</style>
<g id="_x38__1_">
	<g>
		<path class="st0" d="M194.6,137.8H5.1c-1.3,0-2.4-1.1-2.4-2.4v-14.4c0-1.3,1.1-2.4,2.4-2.4s2.4,1.1,2.4,2.4v12h184.8v-12
			c0-1.3,1.1-2.4,2.4-2.4c1.3,0,2.4,1.1,2.4,2.4v14.4C196.9,136.7,195.9,137.8,194.6,137.8z"/>
	</g>
	<g>
		<path class="st0" d="M195.3,123.4H4.7c-0.8,0-1.8-0.6-2.2-1.3c-0.5-0.8-0.6-1.9-0.1-2.7l28.5-56.8c0.4-0.8,1.2-1.3,2.1-1.3h134.1
			c0.9,0,1.7,0.5,2.1,1.3l28.5,56.9c0.4,0.8,0.4,1.9-0.1,2.7C197.1,122.9,196.2,123.4,195.3,123.4z M193.5,121.5
			C193.5,121.5,193.5,121.6,193.5,121.5L193.5,121.5z M6.5,121.5L6.5,121.5C6.5,121.5,6.5,121.5,6.5,121.5z M8,118.7H192L165.6,66
			H34.4L8,118.7z"/>
	</g>
	<g>
		<path class="st0" d="M175,83.2H25.8c-1.3,0-2.4-1.1-2.4-2.4s1.1-2.4,2.4-2.4H175c1.3,0,2.4,1.1,2.4,2.4S176.3,83.2,175,83.2z"/>
	</g>
	<g>
		<path class="st0" d="M185.5,103.3H15.6c-1.3,0-2.4-1.1-2.4-2.4s1.1-2.4,2.4-2.4h169.8c1.3,0,2.4,1.1,2.4,2.4
			S186.8,103.3,185.5,103.3z"/>
	</g>
	<g>
		<path class="st0" d="M76.8,82.6c-1.3,0-2.4-1.1-2.4-2.4V66.5c0-1.3,1.1-2.4,2.4-2.4s2.4,1.1,2.4,2.4v13.8
			C79.2,81.6,78.2,82.6,76.8,82.6z"/>
	</g>
	<g>
		<path class="st0" d="M105.6,103.4c-1.3,0-2.4-1.1-2.4-2.4V81.7c0-1.3,1.1-2.4,2.4-2.4s2.4,1.1,2.4,2.4V101
			C107.9,102.3,106.9,103.4,105.6,103.4z"/>
	</g>
	<g>
		<path class="st0" d="M51,123.1c-1.3,0-2.4-1.1-2.4-2.4v-19.4c0-1.3,1.1-2.4,2.4-2.4c1.3,0,2.4,1.1,2.4,2.4v19.4
			C53.4,122,52.3,123.1,51,123.1z"/>
	</g>
	<g>
		<path class="st0" d="M134.3,122.9c-1.3,0-2.4-1.1-2.4-2.4v-19.3c0-1.3,1.1-2.4,2.4-2.4s2.4,1.1,2.4,2.4v19.3
			C136.6,121.8,135.6,122.9,134.3,122.9z"/>
	</g>
</g>
</svg>
