<?xml version="1.0" encoding="utf-8"?>
<!-- Generator: Adobe Illustrator 22.0.1, SVG Export Plug-In . SVG Version: 6.00 Build 0)  -->
<svg version="1.1" id="Layer_1" xmlns="http://www.w3.org/2000/svg" xmlns:xlink="http://www.w3.org/1999/xlink" x="0px" y="0px"
	 viewBox="0 0 200 200" style="enable-background:new 0 0 200 200;" xml:space="preserve">
<style type="text/css">
	.st0{fill:#FFFFFF;}
</style>
<g id="_x31_0">
	<g>
		<path class="st0" d="M139.9,76.2H38.1c-8.8,0-15.9-7.1-15.9-15.9V43.6c0-8.8,7.1-15.9,15.9-15.9h101.8c8.8,0,15.9,7.1,15.9,15.9
			v16.7C155.8,69.1,148.6,76.2,139.9,76.2z M38.1,32.3c-6.3,0-11.4,5.1-11.4,11.4v16.7c0,6.3,5.1,11.4,11.4,11.4h101.8
			c6.3,0,11.4-5.1,11.4-11.4V43.6c0-6.3-5.1-11.4-11.4-11.4H38.1z"/>
	</g>
	<g>
		<path class="st0" d="M90.3,131.1c-1.3,0-2.3-1-2.3-2.3v-18.4c0-4.2,2.8-7.7,6.8-8.5l72.6-16.6c2.2-0.5,3-2.5,3-4.1V56.1
			c0-2.3-1.2-4.6-3.4-4.6h-10.8c-1.3,0-2.3-1-2.3-2.3s1-2.3,2.3-2.3h10.8c4.5,0,7.9,3.9,7.9,9.1v25.1c0,4.3-2.6,7.7-6.6,8.5
			l-72.6,16.6c-2,0.4-3.2,2-3.2,4.1v18.4C92.6,130.1,91.6,131.1,90.3,131.1z"/>
	</g>
	<g>
		<path class="st0" d="M94.3,177.8H83.7c-3.6,0-6.6-3-6.6-6.6v-38.1c0-3.6,3-6.6,6.6-6.6h10.6c3.6,0,6.6,3,6.6,6.6v38.1
			C100.9,174.9,97.9,177.8,94.3,177.8z M83.7,131.1c-1.1,0-2,0.9-2,2v38.1c0,1.1,0.9,2,2,2h10.6c1.1,0,2-0.9,2-2v-38.1
			c0-1.1-0.9-2-2-2H83.7z"/>
	</g>
</g>
</svg>
