<?xml version="1.0" encoding="utf-8"?>
<!-- Generator: Adobe Illustrator 22.0.1, SVG Export Plug-In . SVG Version: 6.00 Build 0)  -->
<svg version="1.1" id="Layer_1" xmlns="http://www.w3.org/2000/svg" xmlns:xlink="http://www.w3.org/1999/xlink" x="0px" y="0px"
	 viewBox="0 0 200 200" style="enable-background:new 0 0 200 200;" xml:space="preserve">
<style type="text/css">
	.st0{fill:#FFFFFF;}
</style>
<g id="_x32_">
	<g>
		<path class="st0" d="M121.2,98.5c-0.6,0-1.3-0.2-1.8-0.7c-1-1-1-2.5,0-3.5l35.5-35.5l8.2-23.3l-23.3,8.2l-35.5,35.5
			c-1,1-2.5,1-3.5,0c-1-1-1-2.5,0-3.5l35.9-35.9c0.3-0.3,0.6-0.5,0.9-0.6l27.2-9.6c1.2-0.4,2.5-0.1,3.4,0.8c0.9,0.9,1.2,2.2,0.8,3.4
			L159.4,61c-0.1,0.4-0.3,0.7-0.6,0.9l-35.9,35.9C122.4,98.3,121.8,98.5,121.2,98.5z M166.4,34.3L166.4,34.3
			C166.4,34.3,166.4,34.3,166.4,34.3z M164.2,32.1C164.2,32.1,164.2,32.1,164.2,32.1L164.2,32.1z"/>
	</g>
	<g>
		<path class="st0" d="M39,176.6c-3.1,0-6.2-1.2-8.6-3.6l-4.9-4.9c-4.8-4.8-4.8-12.5,0-17.3l48.6-48.6c1-1,2.5-1,3.5,0
			c1,1,1,2.5,0,3.5L29,154.4c-1.4,1.4-2.1,3.2-2.1,5.1c0,1.9,0.8,3.8,2.1,5.1l4.9,4.9c2.7,2.7,7.5,2.7,10.2,0L92.7,121
			c1-1,2.5-1,3.5,0c1,1,1,2.5,0,3.5l-48.6,48.6C45.2,175.4,42.1,176.6,39,176.6z"/>
	</g>
	<g>
		<path class="st0" d="M164.3,41.1c-0.6,0-1.3-0.2-1.8-0.7l-4.6-4.6c-0.5-0.5-0.7-1.1-0.7-1.8c0-0.6,0.2-1.3,0.7-1.8
			c1-1,2.5-1,3.5,0l4.6,4.6c0.5,0.5,0.7,1.1,0.7,1.8c0,0.6-0.2,1.3-0.7,1.8S165,41.1,164.3,41.1z"/>
	</g>
	<g>
		<path class="st0" d="M154.4,65.3c-0.6,0-1.3-0.2-1.8-0.7L134,46c-0.5-0.5-0.7-1.1-0.7-1.8c0-0.6,0.2-1.3,0.7-1.8c1-1,2.5-1,3.5,0
			L156.1,61c0.5,0.5,0.7,1.1,0.7,1.8c0,0.6-0.2,1.3-0.7,1.8C155.6,65,155,65.3,154.4,65.3z"/>
	</g>
	<g>
		<path class="st0" d="M154.2,185c-0.7,0-1.3-0.3-1.8-0.7L14.2,45.9c-1-1-1-2.5,0-3.5l26.7-26.7c0.5-0.5,1.1-0.7,1.8-0.7l0,0
			c0.7,0,1.3,0.3,1.8,0.7l138.3,138.3c1,1,1,2.5,0,3.5L156,184.3C155.5,184.7,154.9,185,154.2,185z M19.4,44.2L154.2,179l23.2-23.2
			L42.6,21L19.4,44.2z"/>
	</g>
	<g>
		<path class="st0" d="M157.9,153.1c-0.6,0-1.3-0.2-1.8-0.7c-0.5-0.5-0.7-1.1-0.7-1.8s0.2-1.3,0.7-1.8l8.9-8.9c1-1,2.5-1,3.5,0
			c0.5,0.5,0.7,1.1,0.7,1.8s-0.2,1.3-0.7,1.8l-8.9,8.9C159.2,152.8,158.6,153.1,157.9,153.1z"/>
	</g>
	<g>
		<path class="st0" d="M138.6,145c-0.6,0-1.3-0.2-1.8-0.7c-0.5-0.5-0.7-1.1-0.7-1.8c0-0.6,0.2-1.3,0.7-1.8l14.5-14.5
			c1-1,2.5-1,3.5,0c0.5,0.5,0.7,1.1,0.7,1.8c0,0.6-0.2,1.3-0.7,1.8l-14.5,14.5C139.9,144.8,139.2,145,138.6,145z"/>
	</g>
	<g>
		<path class="st0" d="M130.6,125.7c-0.6,0-1.3-0.2-1.8-0.7c-0.5-0.5-0.7-1.1-0.7-1.8c0-0.6,0.2-1.3,0.7-1.8l8.9-8.9
			c1-1,2.5-1,3.5,0c0.5,0.5,0.7,1.1,0.7,1.8c0,0.6-0.2,1.3-0.7,1.8l-8.9,8.9C131.8,125.5,131.2,125.7,130.6,125.7z"/>
	</g>
	<g>
		<path class="st0" d="M116.9,112c-0.6,0-1.3-0.2-1.8-0.7c-0.5-0.5-0.7-1.1-0.7-1.8c0-0.6,0.2-1.3,0.7-1.8l8.9-8.9c1-1,2.5-1,3.5,0
			c0.5,0.5,0.7,1.1,0.7,1.8c0,0.6-0.2,1.3-0.7,1.8l-8.9,8.9C118.1,111.8,117.5,112,116.9,112z"/>
	</g>
	<g>
		<path class="st0" d="M97.5,104c-0.6,0-1.3-0.2-1.8-0.7c-0.5-0.5-0.7-1.1-0.7-1.8c0-0.6,0.2-1.3,0.7-1.8l14.5-14.5c1-1,2.5-1,3.5,0
			c0.5,0.5,0.7,1.1,0.7,1.8c0,0.6-0.2,1.3-0.7,1.8l-14.5,14.5C98.8,103.7,98.2,104,97.5,104z"/>
	</g>
	<g>
		<path class="st0" d="M89.5,84.6c-0.6,0-1.3-0.2-1.8-0.7c-0.5-0.5-0.7-1.1-0.7-1.8c0-0.6,0.2-1.3,0.7-1.8l8.9-8.9c1-1,2.5-1,3.5,0
			c0.5,0.5,0.7,1.1,0.7,1.8c0,0.6-0.2,1.3-0.7,1.8l-8.9,8.9C90.8,84.4,90.1,84.6,89.5,84.6z"/>
	</g>
	<g>
		<path class="st0" d="M75.8,71c-0.6,0-1.3-0.2-1.8-0.7c-0.5-0.5-0.7-1.1-0.7-1.8c0-0.6,0.2-1.3,0.7-1.8l8.9-8.9c1-1,2.5-1,3.5,0
			c0.5,0.5,0.7,1.1,0.7,1.8c0,0.6-0.2,1.3-0.7,1.8l-8.9,8.9C77.1,70.7,76.4,71,75.8,71z"/>
	</g>
	<g>
		<path class="st0" d="M56.5,62.9c-0.6,0-1.3-0.2-1.8-0.7S54,61.1,54,60.4c0-0.6,0.2-1.3,0.7-1.8l14.5-14.5c1-1,2.5-1,3.5,0
			c0.5,0.5,0.7,1.1,0.7,1.8c0,0.6-0.2,1.3-0.7,1.8L58.2,62.2C57.8,62.7,57.1,62.9,56.5,62.9z"/>
	</g>
	<g>
		<path class="st0" d="M48.4,43.6c-0.6,0-1.3-0.2-1.8-0.7c-0.5-0.5-0.7-1.1-0.7-1.8c0-0.6,0.2-1.3,0.7-1.8l8.9-8.9c1-1,2.5-1,3.5,0
			c0.5,0.5,0.7,1.1,0.7,1.8c0,0.6-0.2,1.3-0.7,1.8l-8.9,8.9C49.7,43.3,49.1,43.6,48.4,43.6z"/>
	</g>
	<g>
		<path class="st0" d="M52.5,167.2c-0.6,0-1.3-0.2-1.8-0.7l-18.6-18.6c-0.5-0.5-0.7-1.1-0.7-1.8c0-0.6,0.2-1.3,0.7-1.8
			c1-1,2.5-1,3.5,0l18.6,18.6c0.5,0.5,0.7,1.1,0.7,1.8s-0.2,1.3-0.7,1.8S53.1,167.2,52.5,167.2z"/>
	</g>
</g>
</svg>
