<?xml version="1.0" encoding="utf-8"?>
<!-- Generator: Adobe Illustrator 22.0.1, SVG Export Plug-In . SVG Version: 6.00 Build 0)  -->
<svg version="1.1" id="Layer_1" xmlns="http://www.w3.org/2000/svg" xmlns:xlink="http://www.w3.org/1999/xlink" x="0px" y="0px"
	 viewBox="0 0 200 200" style="enable-background:new 0 0 200 200;" xml:space="preserve">
<style type="text/css">
	.st0{fill:#FFFFFF;}
	.st1{fill:#FFFFFF;stroke:#222222;stroke-width:1.652;stroke-linecap:round;stroke-linejoin:round;stroke-miterlimit:10;}
</style>
<g id="_x36_">
	<g>
		<path class="st0" d="M61.6,147.3C61.5,147.3,61.5,147.3,61.6,147.3l-29.9-1.1c-1.2,0-2.2-1-2.2-2.2v-19.7c0-0.6,0.2-1.2,0.7-1.6
			c0.4-0.4,1-0.7,1.6-0.6l29.9,0.4c1.2,0,2.2,1,2.2,2.2V145c0,0.6-0.2,1.2-0.7,1.6C62.7,147.1,62.2,147.3,61.6,147.3z M34,141.8
			l25.4,0.9v-15.9L34,126.5V141.8z"/>
	</g>
	<g>
		<path class="st0" d="M129.5,143c-0.5,0-1.1-0.2-1.5-0.5c-0.5-0.4-0.8-1-0.8-1.7v-16.9c0-1.2,0.9-2.1,2-2.2l16.3-1.7
			c0.6-0.1,1.3,0.1,1.7,0.6c0.5,0.4,0.7,1,0.7,1.7v16.2c0,1.1-0.8,2.1-1.9,2.2l-16.3,2.4C129.7,143,129.6,143,129.5,143z
			 M145.7,138.4L145.7,138.4L145.7,138.4z M131.7,125.9v12.3l11.8-1.7v-11.8L131.7,125.9z"/>
	</g>
	<g>
		<path class="st0" d="M156.6,138.5c-0.5,0-1-0.2-1.5-0.5c-0.5-0.4-0.8-1.1-0.8-1.7v-15.1c0-1.1,0.9-2.1,2-2.2l13.6-1.5
			c0.6-0.1,1.3,0.1,1.7,0.6c0.5,0.4,0.7,1,0.7,1.7v14.4c0,1.1-0.8,2-1.9,2.2l-13.6,2.2C156.8,138.5,156.7,138.5,156.6,138.5z
			 M170.2,134.1L170.2,134.1L170.2,134.1z M158.8,123.1v10.5l9.1-1.5v-10L158.8,123.1z"/>
	</g>
	<g>
		<path class="st0" d="M96.9,175c-1.2,0-2.2-1-2.2-2.2v-34.3l-17.2-0.3v34.6c0,1.2-1,2.2-2.2,2.2c-1.2,0-2.2-1-2.2-2.2v-36.9
			c0-0.6,0.2-1.2,0.7-1.6c0.4-0.4,0.9-0.7,1.6-0.6l21.7,0.4c1.2,0,2.2,1,2.2,2.2v36.5C99.1,174,98.1,175,96.9,175z"/>
	</g>
	<g>
		<path class="st0" d="M96.9,161.4c-0.1,0-0.2,0-0.3,0l-2.9-0.4c-1.1-0.1-2-1.1-2-2.2c0-0.1,0-0.2,0-0.3c0.1-1.2,1.3-2.1,2.5-2
			l2.9,0.4c1.1,0.1,2,1.1,2,2.2c0,0.1,0,0.2,0,0.3C99,160.6,98,161.4,96.9,161.4z"/>
	</g>
	<g>
		<path class="st0" d="M115.1,102.1c-0.1,0-0.2,0-0.2,0l-99.4-1.6c-0.8,0-1.6-0.5-2-1.2c-0.4-0.7-0.3-1.6,0.2-2.3l50.4-72
			c0.1-0.1,0.1-0.2,0.2-0.2c0,0,0,0,0,0c0,0,0,0,0,0c0.1-0.1,0.2-0.2,0.3-0.2c0,0,0,0,0,0c0,0,0,0,0,0c0.4-0.3,0.9-0.6,1.5-0.5
			l63.5,1.1c0.7,0,1.3,0.3,1.7,0.8L185.5,93c0.5,0.6,0.6,1.5,0.3,2.3c-0.3,0.8-1.1,1.3-1.9,1.3l-67.7,5.4c-0.2,0.1-0.4,0.1-0.6,0.1
			l-0.3,0C115.2,102.1,115.2,102.1,115.1,102.1z M19.7,96.1l91.1,1.4l-45-67.4L19.7,96.1z M70.2,28.5l46.1,69l63.1-5l-51-63
			L70.2,28.5z"/>
	</g>
	<g>
		<path class="st0" d="M64.9,86.2c-6.5,0-11.8-5.3-11.8-11.8c0-6.5,5.3-11.8,11.8-11.8c6.5,0,11.8,5.3,11.8,11.8
			C76.7,80.9,71.4,86.2,64.9,86.2z M64.9,67c-4.1,0-7.4,3.3-7.4,7.4c0,4.1,3.3,7.4,7.4,7.4c4.1,0,7.4-3.3,7.4-7.4
			C72.2,70.3,68.9,67,64.9,67z"/>
	</g>
	<g>
		<path class="st0" d="M15.4,173.8c-1.2,0-2.2-1-2.2-2.2V98.3c0-1.2,1-2.2,2.2-2.2s2.2,1,2.2,2.2v73.2
			C17.7,172.8,16.7,173.8,15.4,173.8z"/>
	</g>
	<g>
		<path class="st0" d="M113.2,175.1c-1.2,0-2.2-1-2.2-2.2V99c0-1.2,1-2.2,2.2-2.2s2.2,1,2.2,2.2v73.9
			C115.4,174.1,114.4,175.1,113.2,175.1z"/>
	</g>
	<g>
		<path class="st0" d="M183.8,162.9c-1.2,0-2.2-1-2.2-2.2V94.5c0-1.2,1-2.2,2.2-2.2c1.2,0,2.2,1,2.2,2.2v66.1
			C186,161.9,185,162.9,183.8,162.9z"/>
	</g>
	<g>
		<path class="st1" d="M15.6,123.7"/>
	</g>
	<g>
		<path class="st0" d="M122.4,87.7c-0.7,0-1.4-0.3-1.9-1L116,80c-0.3-0.4-0.4-0.8-0.4-1.2c0-0.7,0.3-1.4,1-1.9
			c1-0.7,2.4-0.4,3.1,0.6l4.5,6.7c0.3,0.4,0.4,0.8,0.4,1.2c0,0.7-0.3,1.4-1,1.9C123.3,87.6,122.8,87.7,122.4,87.7z"/>
	</g>
	<g>
		<path class="st0" d="M111.3,71.9c-0.7,0-1.4-0.3-1.9-1L87.6,38.4c-0.3-0.4-0.4-0.8-0.4-1.2c0-0.7,0.3-1.4,1-1.9
			c1-0.7,2.4-0.4,3.1,0.6l21.8,32.5c0.3,0.4,0.4,0.8,0.4,1.2c0,0.7-0.3,1.4-1,1.9C112.2,71.8,111.7,71.9,111.3,71.9z"/>
	</g>
	<g>
		<path class="st0" d="M157,85.6c-0.7,0-1.4-0.3-1.8-0.9l-5.7-8c-0.3-0.4-0.4-0.9-0.4-1.3c0-0.7,0.3-1.4,0.9-1.8
			c1-0.7,2.4-0.5,3.1,0.5l5.7,8c0.3,0.4,0.4,0.9,0.4,1.3c0,0.7-0.3,1.4-0.9,1.8C157.9,85.4,157.5,85.6,157,85.6z"/>
	</g>
	<g>
		<path class="st0" d="M145.7,70.3c-0.7,0-1.4-0.3-1.8-0.9l-21-29.3c-0.3-0.4-0.4-0.9-0.4-1.3c0-0.7,0.3-1.4,0.9-1.8
			c1-0.7,2.4-0.5,3.1,0.5l21,29.3c0.3,0.4,0.4,0.9,0.4,1.3c0,0.7-0.3,1.4-0.9,1.8C146.6,70.2,146.2,70.3,145.7,70.3z"/>
	</g>
	<g>
		<path class="st0" d="M113.9,49.4c-0.7,0-1.4-0.3-1.9-1l-5.4-7.8c-0.3-0.4-0.4-0.8-0.4-1.3c0-0.7,0.3-1.4,1-1.8
			c1-0.7,2.4-0.4,3.1,0.6l5.4,7.8c0.3,0.4,0.4,0.8,0.4,1.3c0,0.7-0.3,1.4-1,1.8C114.8,49.2,114.3,49.4,113.9,49.4z"/>
	</g>
	<g>
		<path class="st0" d="M140.3,87.1c-0.7,0-1.4-0.3-1.9-1l-20.8-30.3c-0.3-0.4-0.4-0.8-0.4-1.3c0-0.7,0.3-1.4,1-1.8
			c1-0.7,2.4-0.4,3.1,0.6l20.8,30.3c0.3,0.4,0.4,0.8,0.4,1.3c0,0.7-0.3,1.4-1,1.8C141.2,87,140.8,87.1,140.3,87.1z"/>
	</g>
	<g>
		<path class="st0" d="M114.3,177.9C114.2,177.9,114.2,177.9,114.3,177.9l-98.8-4.1c-1.2,0-2.2-1-2.2-2.2c0,0,0-0.1,0-0.1
			c0.1-1.2,1.1-2.2,2.3-2.1l98.7,4.1c1.2,0,2.2,1,2.2,2.2c0,0,0,0.1,0,0.1C116.5,176.9,115.5,177.9,114.3,177.9z"/>
	</g>
	<g>
		<path class="st0" d="M114.3,177.9c-1,0-2-0.7-2.2-1.8c0-0.2-0.1-0.3-0.1-0.5c0-1,0.7-2,1.8-2.2l68.1-14.9c1.2-0.3,2.4,0.5,2.7,1.7
			c0,0.2,0.1,0.3,0.1,0.5c0,1-0.7,2-1.8,2.2l-68.1,14.9C114.6,177.9,114.4,177.9,114.3,177.9z"/>
	</g>
	<g>
		<path class="st0" d="M45.3,146c-1.2,0-2.2-1-2.2-2.2v-18.5c0-1.2,1-2.2,2.2-2.2c1.2,0,2.2,1,2.2,2.2v18.5
			C47.5,145,46.5,146,45.3,146z"/>
	</g>
	<g>
		<path class="st0" d="M115.3,167c-1.1,0-2-0.7-2.2-1.8c0-0.1,0-0.3,0-0.4c0-1.1,0.8-2,1.8-2.2l67.1-12.8c1.2-0.2,2.4,0.6,2.6,1.8
			c0,0.1,0,0.3,0,0.4c0,1.1-0.8,2-1.8,2.2l-67.1,12.8C115.6,167,115.4,167,115.3,167z"/>
	</g>
</g>
</svg>
